<?xml version="1.0" encoding="UTF-8" standalone="no"?>
<!DOCTYPE svg PUBLIC "-//W3C//DTD SVG 1.1//EN"
 "http://www.w3.org/Graphics/SVG/1.1/DTD/svg11.dtd">
<!-- Generated by graphviz version 2.43.0 (0)
 -->
<!-- Title: /home/runner/work/incubator&#45;opendal/incubator&#45;opendal/bindings/cpp/include/opendal.hpp Pages: 1 -->
<svg width="447pt" height="106pt"
 viewBox="0.00 0.00 446.50 106.00" xmlns="http://www.w3.org/2000/svg" xmlns:xlink="http://www.w3.org/1999/xlink">
<g id="graph0" class="graph" transform="scale(1 1) rotate(0) translate(4 102)">
<title>/home/runner/work/incubator&#45;opendal/incubator&#45;opendal/bindings/cpp/include/opendal.hpp</title>
<polygon fill="white" stroke="transparent" points="-4,4 -4,-102 442.5,-102 442.5,4 -4,4"/>
<!-- Node1 -->
<g id="node1" class="node">
<title>Node1</title>
<g id="a_node1"><a xlink:title=" ">
<polygon fill="#bfbfbf" stroke="black" points="115,-56.5 115,-97.5 297,-97.5 297,-56.5 115,-56.5"/>
<text text-anchor="start" x="123" y="-85.5" font-family="Helvetica,sans-Serif" font-size="10.00">/home/runner/work/incubator</text>
<text text-anchor="start" x="123" y="-74.5" font-family="Helvetica,sans-Serif" font-size="10.00">&#45;opendal/incubator&#45;opendal</text>
<text text-anchor="middle" x="206" y="-63.5" font-family="Helvetica,sans-Serif" font-size="10.00">/bindings/cpp/include/opendal.hpp</text>
</a>
</g>
</g>
<!-- Node2 -->
<g id="node2" class="node">
<title>Node2</title>
<g id="a_node2"><a xlink:title=" ">
<polygon fill="white" stroke="#bfbfbf" points="0,-0.5 0,-19.5 50,-19.5 50,-0.5 0,-0.5"/>
<text text-anchor="middle" x="25" y="-7.5" font-family="Helvetica,sans-Serif" font-size="10.00">lib.rs.h</text>
</a>
</g>
</g>
<!-- Node1&#45;&gt;Node2 -->
<g id="edge1" class="edge">
<title>Node1&#45;&gt;Node2</title>
<path fill="none" stroke="midnightblue" d="M151.69,-56.5C121.41,-45.62 84.65,-32.42 58.54,-23.05"/>
<polygon fill="midnightblue" stroke="midnightblue" points="59.69,-19.74 49.09,-19.65 57.32,-26.33 59.69,-19.74"/>
</g>
<!-- Node3 -->
<g id="node3" class="node">
<title>Node3</title>
<g id="a_node3"><a xlink:title=" ">
<polygon fill="white" stroke="#bfbfbf" points="68,-0.5 68,-19.5 126,-19.5 126,-0.5 68,-0.5"/>
<text text-anchor="middle" x="97" y="-7.5" font-family="Helvetica,sans-Serif" font-size="10.00">memory</text>
</a>
</g>
</g>
<!-- Node1&#45;&gt;Node3 -->
<g id="edge2" class="edge">
<title>Node1&#45;&gt;Node3</title>
<path fill="none" stroke="midnightblue" d="M173.3,-56.5C156.26,-46.34 135.83,-34.16 120.4,-24.95"/>
<polygon fill="midnightblue" stroke="midnightblue" points="121.89,-21.77 111.51,-19.65 118.31,-27.78 121.89,-21.77"/>
</g>
<!-- Node4 -->
<g id="node4" class="node">
<title>Node4</title>
<g id="a_node4"><a xlink:title=" ">
<polygon fill="white" stroke="#bfbfbf" points="144,-0.5 144,-19.5 200,-19.5 200,-0.5 144,-0.5"/>
<text text-anchor="middle" x="172" y="-7.5" font-family="Helvetica,sans-Serif" font-size="10.00">optional</text>
</a>
</g>
</g>
<!-- Node1&#45;&gt;Node4 -->
<g id="edge3" class="edge">
<title>Node1&#45;&gt;Node4</title>
<path fill="none" stroke="midnightblue" d="M195.8,-56.5C191.19,-47.68 185.78,-37.34 181.28,-28.74"/>
<polygon fill="midnightblue" stroke="midnightblue" points="184.26,-26.89 176.53,-19.65 178.06,-30.14 184.26,-26.89"/>
</g>
<!-- Node5 -->
<g id="node5" class="node">
<title>Node5</title>
<g id="a_node5"><a xlink:title=" ">
<polygon fill="white" stroke="#bfbfbf" points="218,-0.5 218,-19.5 262,-19.5 262,-0.5 218,-0.5"/>
<text text-anchor="middle" x="240" y="-7.5" font-family="Helvetica,sans-Serif" font-size="10.00">string</text>
</a>
</g>
</g>
<!-- Node1&#45;&gt;Node5 -->
<g id="edge4" class="edge">
<title>Node1&#45;&gt;Node5</title>
<path fill="none" stroke="midnightblue" d="M216.2,-56.5C220.81,-47.68 226.22,-37.34 230.72,-28.74"/>
<polygon fill="midnightblue" stroke="midnightblue" points="233.94,-30.14 235.47,-19.65 227.74,-26.89 233.94,-30.14"/>
</g>
<!-- Node6 -->
<g id="node6" class="node">
<title>Node6</title>
<g id="a_node6"><a xlink:title=" ">
<polygon fill="white" stroke="#bfbfbf" points="280.5,-0.5 280.5,-19.5 373.5,-19.5 373.5,-0.5 280.5,-0.5"/>
<text text-anchor="middle" x="327" y="-7.5" font-family="Helvetica,sans-Serif" font-size="10.00">unordered_map</text>
</a>
</g>
</g>
<!-- Node1&#45;&gt;Node6 -->
<g id="edge5" class="edge">
<title>Node1&#45;&gt;Node6</title>
<path fill="none" stroke="midnightblue" d="M242.3,-56.5C261.57,-46.15 284.75,-33.69 301.99,-24.43"/>
<polygon fill="midnightblue" stroke="midnightblue" points="303.74,-27.47 310.89,-19.65 300.43,-21.3 303.74,-27.47"/>
</g>
<!-- Node7 -->
<g id="node7" class="node">
<title>Node7</title>
<g id="a_node7"><a xlink:title=" ">
<polygon fill="white" stroke="#bfbfbf" points="391.5,-0.5 391.5,-19.5 438.5,-19.5 438.5,-0.5 391.5,-0.5"/>
<text text-anchor="middle" x="415" y="-7.5" font-family="Helvetica,sans-Serif" font-size="10.00">vector</text>
</a>
</g>
</g>
<!-- Node1&#45;&gt;Node7 -->
<g id="edge6" class="edge">
<title>Node1&#45;&gt;Node7</title>
<path fill="none" stroke="midnightblue" d="M268.71,-56.5C305.87,-44.94 351.47,-30.76 381.78,-21.33"/>
<polygon fill="midnightblue" stroke="midnightblue" points="382.93,-24.64 391.44,-18.33 380.86,-17.95 382.93,-24.64"/>
</g>
</g>
</svg>
