<?xml version="1.0" encoding="UTF-8" standalone="no"?>
<!DOCTYPE svg PUBLIC "-//W3C//DTD SVG 1.1//EN"
 "http://www.w3.org/Graphics/SVG/1.1/DTD/svg11.dtd">
<!-- Generated by graphviz version 2.43.0 (0)
 -->
<!-- Title: /home/runner/work/incubator&#45;opendal/incubator&#45;opendal/bindings/cpp/include/opendal.hpp Pages: 1 -->
<svg width="591pt" height="117pt"
 viewBox="0.00 0.00 590.50 117.00" xmlns="http://www.w3.org/2000/svg" xmlns:xlink="http://www.w3.org/1999/xlink">
<g id="graph0" class="graph" transform="scale(1 1) rotate(0) translate(4 113)">
<title>/home/runner/work/incubator&#45;opendal/incubator&#45;opendal/bindings/cpp/include/opendal.hpp</title>
<polygon fill="white" stroke="transparent" points="-4,4 -4,-113 586.5,-113 586.5,4 -4,4"/>
<!-- Node1 -->
<g id="node1" class="node">
<title>Node1</title>
<g id="a_node1"><a xlink:title=" ">
<polygon fill="#bfbfbf" stroke="black" points="225,-67.5 225,-108.5 407,-108.5 407,-67.5 225,-67.5"/>
<text text-anchor="start" x="233" y="-96.5" font-family="Helvetica,sans-Serif" font-size="10.00">/home/runner/work/incubator</text>
<text text-anchor="start" x="233" y="-85.5" font-family="Helvetica,sans-Serif" font-size="10.00">&#45;opendal/incubator&#45;opendal</text>
<text text-anchor="middle" x="316" y="-74.5" font-family="Helvetica,sans-Serif" font-size="10.00">/bindings/cpp/include/opendal.hpp</text>
</a>
</g>
</g>
<!-- Node2 -->
<g id="node2" class="node">
<title>Node2</title>
<g id="a_node2"><a xlink:title=" ">
<polygon fill="white" stroke="#bfbfbf" points="0,-6 0,-25 50,-25 50,-6 0,-6"/>
<text text-anchor="middle" x="25" y="-13" font-family="Helvetica,sans-Serif" font-size="10.00">lib.rs.h</text>
</a>
</g>
</g>
<!-- Node1&#45;&gt;Node2 -->
<g id="edge1" class="edge">
<title>Node1&#45;&gt;Node2</title>
<path fill="none" stroke="midnightblue" d="M224.81,-71.47C175.18,-61.94 113.05,-48.25 59,-31 57.07,-30.39 55.11,-29.7 53.14,-28.98"/>
<polygon fill="midnightblue" stroke="midnightblue" points="54.05,-25.57 43.47,-25.12 51.46,-32.08 54.05,-25.57"/>
</g>
<!-- Node3 -->
<g id="node3" class="node">
<title>Node3</title>
<g id="a_node3"><a xlink:title=" ">
<polygon fill="white" stroke="#bfbfbf" points="68.5,-0.5 68.5,-30.5 193.5,-30.5 193.5,-0.5 68.5,-0.5"/>
<text text-anchor="start" x="76.5" y="-18.5" font-family="Helvetica,sans-Serif" font-size="10.00">boost/date_time/posix</text>
<text text-anchor="middle" x="131" y="-7.5" font-family="Helvetica,sans-Serif" font-size="10.00">_time/posix_time.hpp</text>
</a>
</g>
</g>
<!-- Node1&#45;&gt;Node3 -->
<g id="edge2" class="edge">
<title>Node1&#45;&gt;Node3</title>
<path fill="none" stroke="midnightblue" d="M264.47,-67.36C237.14,-56.95 203.83,-44.25 177.33,-34.15"/>
<polygon fill="midnightblue" stroke="midnightblue" points="178.48,-30.85 167.89,-30.56 175.99,-37.39 178.48,-30.85"/>
</g>
<!-- Node4 -->
<g id="node4" class="node">
<title>Node4</title>
<g id="a_node4"><a xlink:title=" ">
<polygon fill="white" stroke="#bfbfbf" points="212,-6 212,-25 270,-25 270,-6 212,-6"/>
<text text-anchor="middle" x="241" y="-13" font-family="Helvetica,sans-Serif" font-size="10.00">memory</text>
</a>
</g>
</g>
<!-- Node1&#45;&gt;Node4 -->
<g id="edge3" class="edge">
<title>Node1&#45;&gt;Node4</title>
<path fill="none" stroke="midnightblue" d="M295.11,-67.36C283.25,-56.21 268.61,-42.46 257.56,-32.06"/>
<polygon fill="midnightblue" stroke="midnightblue" points="259.91,-29.47 250.23,-25.17 255.12,-34.57 259.91,-29.47"/>
</g>
<!-- Node5 -->
<g id="node5" class="node">
<title>Node5</title>
<g id="a_node5"><a xlink:title=" ">
<polygon fill="white" stroke="#bfbfbf" points="288,-6 288,-25 344,-25 344,-6 288,-6"/>
<text text-anchor="middle" x="316" y="-13" font-family="Helvetica,sans-Serif" font-size="10.00">optional</text>
</a>
</g>
</g>
<!-- Node1&#45;&gt;Node5 -->
<g id="edge4" class="edge">
<title>Node1&#45;&gt;Node5</title>
<path fill="none" stroke="midnightblue" d="M316,-67.36C316,-57.3 316,-45.1 316,-35.18"/>
<polygon fill="midnightblue" stroke="midnightblue" points="319.5,-35.17 316,-25.17 312.5,-35.17 319.5,-35.17"/>
</g>
<!-- Node6 -->
<g id="node6" class="node">
<title>Node6</title>
<g id="a_node6"><a xlink:title=" ">
<polygon fill="white" stroke="#bfbfbf" points="362,-6 362,-25 406,-25 406,-6 362,-6"/>
<text text-anchor="middle" x="384" y="-13" font-family="Helvetica,sans-Serif" font-size="10.00">string</text>
</a>
</g>
</g>
<!-- Node1&#45;&gt;Node6 -->
<g id="edge5" class="edge">
<title>Node1&#45;&gt;Node6</title>
<path fill="none" stroke="midnightblue" d="M334.94,-67.36C345.48,-56.43 358.45,-42.99 368.4,-32.67"/>
<polygon fill="midnightblue" stroke="midnightblue" points="371.21,-34.8 375.63,-25.17 366.17,-29.94 371.21,-34.8"/>
</g>
<!-- Node7 -->
<g id="node7" class="node">
<title>Node7</title>
<g id="a_node7"><a xlink:title=" ">
<polygon fill="white" stroke="#bfbfbf" points="424.5,-6 424.5,-25 517.5,-25 517.5,-6 424.5,-6"/>
<text text-anchor="middle" x="471" y="-13" font-family="Helvetica,sans-Serif" font-size="10.00">unordered_map</text>
</a>
</g>
</g>
<!-- Node1&#45;&gt;Node7 -->
<g id="edge6" class="edge">
<title>Node1&#45;&gt;Node7</title>
<path fill="none" stroke="midnightblue" d="M359.18,-67.36C385.83,-55.24 419.26,-40.03 442.6,-29.42"/>
<polygon fill="midnightblue" stroke="midnightblue" points="444.28,-32.5 451.93,-25.17 441.38,-26.13 444.28,-32.5"/>
</g>
<!-- Node8 -->
<g id="node8" class="node">
<title>Node8</title>
<g id="a_node8"><a xlink:title=" ">
<polygon fill="white" stroke="#bfbfbf" points="535.5,-6 535.5,-25 582.5,-25 582.5,-6 535.5,-6"/>
<text text-anchor="middle" x="559" y="-13" font-family="Helvetica,sans-Serif" font-size="10.00">vector</text>
</a>
</g>
</g>
<!-- Node1&#45;&gt;Node8 -->
<g id="edge7" class="edge">
<title>Node1&#45;&gt;Node8</title>
<path fill="none" stroke="midnightblue" d="M402.45,-67.5C441.02,-57.92 486.75,-45.35 527,-31 528.66,-30.41 530.35,-29.77 532.05,-29.09"/>
<polygon fill="midnightblue" stroke="midnightblue" points="533.79,-32.15 541.61,-25.01 531.04,-25.72 533.79,-32.15"/>
</g>
</g>
</svg>
